<?xml version="1.0" encoding="utf-8" ?>
<svg xmlns="http://www.w3.org/2000/svg" xmlns:xlink="http://www.w3.org/1999/xlink" width="1024" height="1024">
	<path fill="white" d="M0 0L1024 0L1024 1024L0 1024L0 0ZM374.043 240.209C335.088 243.057 299.681 260.52 274.193 290.223C249.563 319.15 237.537 356.733 240.797 394.585C243.93 432.518 262.136 467.612 291.344 492.017C301.023 500.188 312.039 506.821 323.1 512.942C314.231 517.919 305.184 522.734 296.944 528.722C271.682 547.26 253.336 573.705 244.82 603.859C234.727 640.194 239.504 679.051 258.096 711.859C277.569 745.422 309.646 769.812 347.193 779.604C382.708 788.911 420.456 783.947 452.357 765.773C479.118 750.433 500.16 726.802 512.305 698.448C515.769 705.514 519.181 712.53 523.427 719.172C540.809 746.417 566.875 767 597.407 777.593C612.516 782.731 627.437 785.027 643.375 784.668C682.522 783.792 717.575 768.043 744.583 739.736C771.09 712.15 785.346 675.037 784.124 636.8C783.151 601.768 766.986 564.942 741.361 540.861C730.216 530.388 716.871 520.705 702.999 514.291C712.005 504.648 723.989 499.291 734.076 490.906C766.885 463.432 785.338 422.47 784.175 379.692C783.11 340.728 766.212 303.881 737.379 277.651C709.524 251.947 670.865 238.668 633.189 240.354C595.957 242.289 561.002 258.873 535.952 286.486C530.258 292.802 525.121 299.6 520.599 306.802C517.656 311.388 514.976 316.403 511.553 320.641C505.861 312.109 500.867 303.143 494.588 295.013C473.724 267.941 443.732 249.376 410.197 242.773C398.173 240.362 386.286 239.607 374.043 240.209Z"/>
	<path fill="#3498DB" d="M323.1 512.942C312.039 506.821 301.023 500.188 291.344 492.017C262.136 467.612 243.93 432.518 240.797 394.585C237.537 356.733 249.563 319.15 274.193 290.223C299.681 260.52 335.088 243.057 374.043 240.209C386.286 239.607 398.173 240.362 410.197 242.773C443.732 249.376 473.724 267.941 494.588 295.013C500.867 303.143 505.861 312.109 511.553 320.641C514.976 316.403 517.656 311.388 520.599 306.802C525.121 299.6 530.258 292.802 535.952 286.486C561.002 258.873 595.957 242.289 633.189 240.354C670.865 238.668 709.524 251.947 737.379 277.651C766.212 303.881 783.11 340.728 784.175 379.692C785.338 422.47 766.885 463.432 734.076 490.906C723.989 499.291 712.005 504.648 702.999 514.291C716.871 520.705 730.216 530.388 741.361 540.861C766.986 564.942 783.151 601.768 784.124 636.8C785.346 675.037 771.09 712.15 744.583 739.736C717.575 768.043 682.522 783.792 643.375 784.668C627.437 785.027 612.516 782.731 597.407 777.593C566.875 767 540.809 746.417 523.427 719.172C519.181 712.53 515.769 705.514 512.305 698.448C500.16 726.802 479.118 750.433 452.357 765.773C420.456 783.947 382.708 788.911 347.193 779.604C309.646 769.812 277.569 745.422 258.096 711.859C239.504 679.051 234.727 640.194 244.82 603.859C253.336 573.705 271.682 547.26 296.944 528.722C305.184 522.734 314.231 517.919 323.1 512.942ZM376.279 286.704C349.174 289.125 325.695 300.582 308.079 321.625C291.683 341.211 284.445 367.041 286.691 392.33C288.966 417.942 302.8 442.065 322.529 458.308C330.606 464.958 340.009 469.884 349.596 473.969C355.606 468.082 361.297 461.88 367.25 455.936L438.788 384.39C450.367 372.826 461.657 360.861 473.566 349.644C459.198 320.479 444.574 302.014 412.667 291.258C401.182 287.387 388.378 285.589 376.279 286.704ZM633.422 286.706C607.188 289.255 583.398 300.493 566.54 321.171C560.002 329.192 553.752 339.503 550.628 349.402C566.357 365.886 582.739 381.892 598.879 397.975L664.353 463.45C667.427 466.618 670.552 469.75 673.573 472.967C696.974 465.33 716.714 447.606 727.829 425.781C739.362 403.278 741.35 377.079 733.344 353.093C725.316 328.346 707.597 307.911 684.237 296.459C668.491 288.678 650.931 285.307 633.422 286.706ZM489.805 398.866C479.68 409.247 400.189 487.303 399.756 489.554L400.159 489.736C425.075 490.386 447.421 485.113 466.045 467.612C482.163 452.467 489.991 431.259 490.556 409.434C490.645 405.984 490.662 402.226 489.805 398.866ZM535.48 399.208C538.521 432.49 528.199 465.614 506.79 491.276C485.626 516.363 455.256 531.876 422.525 534.319C414.215 534.989 406.017 534.751 397.705 534.425L461.423 598.186C470.256 606.915 478.841 616.075 488 624.453C488.08 624.318 488.177 624.193 488.239 624.049C488.709 622.964 488.953 600.463 489.26 597.317C493.23 556.689 520.576 519.515 557.01 501.774C578.384 491.366 602.109 487.696 625.701 489.517C616.018 478.715 605.387 468.676 595.105 458.446L554.449 417.741C550.366 413.687 539.495 401.385 535.48 399.208ZM609.753 534.206C588.315 535.443 568.93 543.555 554.452 559.734C537.715 578.439 533.342 601.718 534.454 626.117C537.433 623.303 540.369 620.445 543.262 617.543L626.368 534.057C620.84 534.03 615.273 533.866 609.753 534.206ZM674.028 550.9L603.755 621.623C586.44 638.842 568.725 655.847 552.084 673.708C556.222 693.436 572.987 714.061 589.647 724.861C599.018 730.868 609.403 735.122 620.296 737.415C647.989 742.151 673.612 737.942 696.884 721.558C717.961 706.719 732.8 682.635 737.038 657.228C741.138 632.138 735.134 606.445 720.342 585.77C709.303 570.447 691.978 557.04 674.028 550.9ZM348.871 552.487C323.242 563.023 304.306 578.546 293.319 604.623C283.669 627.525 283.309 654.834 292.721 677.86C302.364 702.056 321.356 721.343 345.401 731.358C364.672 739.309 387.582 741.57 407.783 735.779C432.837 728.792 453.079 713.356 465.906 690.614C468.902 685.377 471.275 679.808 472.978 674.02C461.92 662.439 352.766 553.576 350.43 552.605C350.415 552.599 349.034 552.474 349.033 552.474C348.979 552.471 348.925 552.483 348.871 552.487Z"/>
	<path fill="white" d="M349.596 473.969C340.009 469.884 330.606 464.958 322.529 458.308C302.8 442.065 288.966 417.942 286.691 392.33C284.445 367.041 291.683 341.211 308.079 321.625C325.695 300.582 349.174 289.125 376.279 286.704C388.378 285.589 401.182 287.387 412.667 291.258C444.574 302.014 459.198 320.479 473.566 349.644C461.657 360.861 450.367 372.826 438.788 384.39L367.25 455.936C361.297 461.88 355.606 468.082 349.596 473.969Z"/>
	<path fill="white" d="M550.628 349.402C553.752 339.503 560.002 329.192 566.54 321.171C583.398 300.493 607.188 289.255 633.422 286.706C650.931 285.307 668.491 288.678 684.237 296.459C707.597 307.911 725.316 328.346 733.344 353.093C741.35 377.079 739.362 403.278 727.829 425.781C716.714 447.606 696.974 465.33 673.573 472.967C670.552 469.75 667.427 466.618 664.353 463.45L598.879 397.975C582.739 381.892 566.357 365.886 550.628 349.402Z"/>
	<path fill="white" d="M400.159 489.736L399.756 489.554C400.189 487.303 479.68 409.247 489.805 398.866C490.662 402.226 490.645 405.984 490.556 409.434C489.991 431.259 482.163 452.467 466.045 467.612C447.421 485.113 425.075 490.386 400.159 489.736Z"/>
	<path fill="white" d="M397.705 534.425C406.017 534.751 414.215 534.989 422.525 534.319C455.256 531.876 485.626 516.363 506.79 491.276C528.199 465.614 538.521 432.49 535.48 399.208C539.495 401.385 550.366 413.687 554.449 417.741L595.105 458.446C605.387 468.676 616.018 478.715 625.701 489.517C602.109 487.696 578.384 491.366 557.01 501.774C520.576 519.515 493.23 556.689 489.26 597.317C488.953 600.463 488.709 622.964 488.239 624.049C488.177 624.193 488.08 624.318 488 624.453C478.841 616.075 470.256 606.915 461.423 598.186L397.705 534.425Z"/>
	<path fill="white" d="M534.454 626.117C533.342 601.718 537.715 578.439 554.452 559.734C568.93 543.555 588.315 535.443 609.753 534.206C615.273 533.866 620.84 534.03 626.368 534.057L543.262 617.543C540.369 620.445 537.433 623.303 534.454 626.117Z"/>
	<path fill="white" d="M552.084 673.708C568.725 655.847 586.44 638.842 603.755 621.623L674.028 550.9C691.978 557.04 709.303 570.447 720.342 585.77C735.134 606.445 741.138 632.138 737.038 657.228C732.8 682.635 717.961 706.719 696.884 721.558C673.612 737.942 647.989 742.151 620.296 737.415C609.403 735.122 599.018 730.868 589.647 724.861C572.987 714.061 556.222 693.436 552.084 673.708Z"/>
	<path fill="white" d="M407.783 735.779C387.582 741.57 364.672 739.309 345.401 731.358C321.356 721.343 302.364 702.056 292.721 677.86C283.309 654.834 283.669 627.525 293.319 604.623C304.306 578.546 323.242 563.023 348.871 552.487C348.925 552.483 348.979 552.471 349.033 552.474C349.034 552.474 350.415 552.599 350.43 552.605C352.766 553.576 461.92 662.439 472.978 674.02C471.275 679.808 468.902 685.377 465.906 690.614C453.079 713.356 432.837 728.792 407.783 735.779Z"/>
</svg>
