<?xml version="1.0" encoding="utf-8" ?>
<svg xmlns="http://www.w3.org/2000/svg" xmlns:xlink="http://www.w3.org/1999/xlink" width="1024" height="1024">
	<path fill="#FEFEFE" d="M0 0L1024 0L1024 1024L0 1024L0 0Z"/>
	<defs>
		<linearGradient id="gradient_0" gradientUnits="userSpaceOnUse" x1="495.74557" y1="77.920822" x2="499.5451" y2="933.44763">
			<stop offset="0" stop-color="#AAD7E2"/>
			<stop offset="1" stop-color="#FFFFFD"/>
		</linearGradient>
	</defs>
	<path fill="url(#gradient_0)" d="M127.005 935.255C121.714 930.381 117.385 923.921 113.018 918.203C88.6223 886.257 73.4463 852.599 59.9826 815.01C56.6589 805.73 54.5195 795.907 52.1269 786.351C35.3935 719.52 34.5331 642.048 64.5607 578.695C73.5452 559.739 84.1188 543.589 98.3616 528.177C103.514 522.601 108.787 516.978 114.628 512.116C138.752 492.036 169.395 481.741 199.729 475.646C230.383 469.486 260.995 465.518 290.593 454.93C302.916 450.522 315.71 445.392 327.136 438.987C363.073 418.607 389.796 385.188 401.771 345.648C407.784 326.233 410.676 305.522 412.628 285.345C416.422 246.132 418.091 205.212 435.299 168.988C454.555 128.456 486.304 101.857 528.432 87.1095C548.315 80.1494 569.09 77.4535 590.073 77.0178C645.481 75.8673 691.329 90.1938 740.849 114.241C761.819 124.424 781.822 137.328 800.55 151.158C839.925 179.866 874.461 214.679 902.853 254.282C908.816 262.754 914.127 271.615 919.559 280.428C934.047 303.934 946.801 328.744 955.83 354.891C970.247 391.933 977.321 431.704 983.239 470.839C987.731 503.068 989.489 535.618 988.493 568.143C988.142 632.847 974.65 696.806 948.836 756.139C946.436 762.521 942.53 768.388 939.529 774.514C914.614 825.369 879.62 872.843 836.142 909.408C829.14 915.21 821.858 920.665 814.323 925.755C809.035 929.256 803.491 932.392 798.279 936.007C808.219 936.251 878.318 935.519 880.577 936.373C881.567 936.747 882.037 936.989 882.43 938.006C881.75 938.792 881.597 938.915 880.643 939.215C876.044 940.661 853.929 939.646 847.707 939.652L745.161 939.476L293.364 939.781C269.945 939.716 85.8158 940.493 82.2534 938.735L82.0533 937.756L82.6486 936.919C86.3014 935.087 127.917 936.167 136.323 935.975L135.997 935.558C133.677 934.708 129.557 935.227 127.005 935.255Z"/>
	<path fill="#6ABFD5" d="M955.83 354.891C970.247 391.933 977.321 431.704 983.239 470.839C987.731 503.068 989.489 535.618 988.493 568.143C988.142 632.847 974.65 696.806 948.836 756.139C946.436 762.521 942.53 768.388 939.529 774.514C914.614 825.369 879.62 872.843 836.142 909.408C829.14 915.21 821.858 920.665 814.323 925.755C809.035 929.256 803.491 932.392 798.279 936.007C808.219 936.251 878.318 935.519 880.577 936.373C881.567 936.747 882.037 936.989 882.43 938.006C881.75 938.792 881.597 938.915 880.643 939.215C876.044 940.661 853.929 939.646 847.707 939.652L745.161 939.476L293.364 939.781C269.945 939.716 85.8158 940.493 82.2534 938.735L82.0533 937.756L82.6486 936.919C86.3014 935.087 127.917 936.167 136.323 935.975C141.852 936.231 147.389 936.271 152.921 936.096C172.039 930.878 191.031 922.538 207.944 912.235C209.762 911.491 211.455 910.498 213.173 909.551L215.182 907.798C221.387 905.671 240.361 889.466 246.037 884.334C250.869 879.989 255.754 875.766 260.148 870.966C283.591 848.291 306.43 814.533 322.908 786.367L324.397 783.797C331.56 772.749 338.199 761.215 344.868 749.858L345.246 749.191C349.188 743.549 352.504 737.463 356.339 731.739C360.515 725.504 365.188 719.628 369.465 713.465L371.563 710.93C414.749 655.708 474.62 623.1 540.041 601.054C559.038 594.653 578.363 588.836 597.981 584.654C596.021 570.608 594.236 555.026 595.525 540.888C595.9 536.77 599.972 517.292 602.409 515.277C605.086 509.284 606.788 502.568 609.048 496.374C611.296 490.21 619.901 470.652 620.325 466.082C620.357 465.829 620.383 465.575 620.42 465.322C621.118 460.468 628.416 443.951 632.435 441.006C634.211 439.459 635.682 437.272 637.267 435.51C641.735 430.543 649.039 422.844 655.828 421.421C644.586 439.397 636.759 457.458 630.823 477.817C631.17 479.27 631.525 480.188 632.313 481.457C634.086 476.936 635.365 472.134 636.937 467.53C639.642 459.609 642.734 452.03 646.364 444.487C647.837 439.192 659.112 421.798 662.704 416.485C663.371 418.987 663.909 421.132 665.591 423.173L666.36 424.89C667.662 425.473 668.876 425.413 670.263 425.214C678.083 424.092 690.282 418.148 695.205 411.898C696.278 413.223 697.98 414.843 698.675 416.363C699.87 417.495 701.247 418.445 701.494 420.16C701.28 421.201 701.059 422.241 700.83 423.28C701.753 422.787 702.352 421.5 702.884 420.631L702.341 419.523L703.115 420.576L703.385 420.652L703.416 421.416L703.852 422.048L704.13 421.41L704.753 420.203C711.424 418.991 726.139 428.957 732.032 432.476L732.215 433.03C730.999 433.307 729.778 433.555 728.595 433.955L728.481 434.55C730.598 435.635 732.854 433.647 734.73 434.832C745.04 441.344 757.011 460.265 763.164 470.936C765.522 475.025 767.784 480.38 770.684 484.047C774.157 486.302 786.509 519.065 789.526 525.338C796.534 521.121 803.195 516.182 809.99 511.623C826.887 500.288 846.919 486.998 861.133 472.51C865.738 468.486 869.872 463.991 874.402 459.898C877.68 456.937 881.701 454.323 884.763 451.233C885.252 450.739 885.538 450.175 885.853 449.567C888.451 446.332 891.541 443.493 894.359 440.448C898.964 435.47 903.389 430.335 908.093 425.447L908.068 425.822L908.771 425.37L908.515 424.381C909.152 423.379 909.929 422.429 910.632 421.47C915.86 413.96 921.942 406.99 927.27 399.528C937.599 385.063 946.786 370.177 955.83 354.891Z"/>
	<path fill="#6ABFD5" d="M955.83 354.891C970.247 391.933 977.321 431.704 983.239 470.839C987.731 503.068 989.489 535.618 988.493 568.143C988.142 632.847 974.65 696.806 948.836 756.139C946.436 762.521 942.53 768.388 939.529 774.514C914.614 825.369 879.62 872.843 836.142 909.408C829.14 915.21 821.858 920.665 814.323 925.755C809.035 929.256 803.491 932.392 798.279 936.007C794.284 936.279 770.495 936.629 767.905 935.653L767.963 934.957C768.185 932.776 768.031 930.425 767.779 928.245C767.287 923.985 766.164 920.901 762.744 918.233L762.157 916.125C762.722 915.738 763.55 915.27 763.98 914.745C764.155 914.532 764.644 913.76 764.722 913.416C766.038 907.561 760.821 847.946 759.676 837.711C758.158 822.989 755.868 808.138 753.367 793.56C738.513 795.302 724.072 795.355 709.189 793.872C700.645 792.531 685.685 791.415 678.332 787.862C677.381 786.195 676.935 784.489 676.583 782.615C675.458 776.619 675.135 770.336 674.296 764.279C672.867 753.952 671.057 743.651 669.397 733.358C666.893 723.815 666.183 712.913 664.88 703.108C660.161 667.59 657.064 632.328 656.516 596.469C656.491 592.337 656.571 588.198 656.601 584.065C654.099 584.064 651.58 584.253 649.081 584.367C648.551 583.706 648.364 583.291 647.565 582.947C644.345 581.558 638.043 581.76 634.839 582.976C629.712 582.093 624.886 582.152 619.775 580.684C621.154 573.84 621.758 566.715 622.757 559.797C624.675 546.421 626.814 533.077 629.172 519.772C630.437 512.778 634.934 497.314 634.123 491.384C634.042 489.489 633.772 487.663 633.481 485.79L634.433 484.517C635.125 485.355 635.063 486.764 635.211 487.842C635.579 486.487 635.688 485.573 635.608 484.172C634.582 482.952 633.684 482.262 632.313 481.457C634.086 476.936 635.365 472.134 636.937 467.53C639.642 459.609 642.734 452.03 646.364 444.487C647.837 439.192 659.112 421.798 662.704 416.485C663.371 418.987 663.909 421.132 665.591 423.173L666.36 424.89C667.662 425.473 668.876 425.413 670.263 425.214C678.083 424.092 690.282 418.148 695.205 411.898C696.278 413.223 697.98 414.843 698.675 416.363C699.87 417.495 701.247 418.445 701.494 420.16C701.28 421.201 701.059 422.241 700.83 423.28C701.753 422.787 702.352 421.5 702.884 420.631L702.341 419.523L703.115 420.576L703.385 420.652L703.416 421.416L703.852 422.048L704.13 421.41L704.753 420.203C711.424 418.991 726.139 428.957 732.032 432.476L732.215 433.03C730.999 433.307 729.778 433.555 728.595 433.955L728.481 434.55C730.598 435.635 732.854 433.647 734.73 434.832C745.04 441.344 757.011 460.265 763.164 470.936C765.522 475.025 767.784 480.38 770.684 484.047C774.157 486.302 786.509 519.065 789.526 525.338C796.534 521.121 803.195 516.182 809.99 511.623C826.887 500.288 846.919 486.998 861.133 472.51C865.738 468.486 869.872 463.991 874.402 459.898C877.68 456.937 881.701 454.323 884.763 451.233C885.252 450.739 885.538 450.175 885.853 449.567C888.451 446.332 891.541 443.493 894.359 440.448C898.964 435.47 903.389 430.335 908.093 425.447L908.068 425.822L908.771 425.37L908.515 424.381C909.152 423.379 909.929 422.429 910.632 421.47C915.86 413.96 921.942 406.99 927.27 399.528C937.599 385.063 946.786 370.177 955.83 354.891Z"/>
	<path fill="#FEFEFE" d="M695.205 411.898C696.278 413.223 697.98 414.843 698.675 416.363C699.87 417.495 701.247 418.445 701.494 420.16C701.28 421.201 701.059 422.241 700.83 423.28C701.753 422.787 702.352 421.5 702.884 420.631L702.341 419.523L703.115 420.576L703.385 420.652L703.416 421.416L703.852 422.048L704.13 421.41L704.753 420.203C711.424 418.991 726.139 428.957 732.032 432.476L732.215 433.03C730.999 433.307 729.778 433.555 728.595 433.955L728.481 434.55C730.598 435.635 732.854 433.647 734.73 434.832C745.04 441.344 757.011 460.265 763.164 470.936C765.522 475.025 767.784 480.38 770.684 484.047C770.727 484.257 770.766 484.467 770.812 484.676C771.65 488.442 774.835 493.132 776.412 496.829C780.74 506.975 793.189 532.103 792.358 541.884C791.674 549.942 786.279 559.141 782.207 565.937C771.073 584.519 755.697 600.505 740.414 615.709C739.294 616.822 733.116 622.56 733.299 623.582C733.459 623.558 733.619 623.531 733.779 623.509C734.421 623.418 735.054 623.374 735.701 623.336C737.565 625.182 738.587 628.641 739.81 630.996C747.669 646.939 755.315 663.179 763.909 678.731C770.725 691.064 778.503 702.964 785.16 715.337C795.271 735.792 816.129 759.529 832.5 775.311C813.525 781.47 794.566 786.547 774.981 790.415C767.97 791.799 760.527 793.522 753.367 793.56C738.513 795.302 724.072 795.355 709.189 793.872C700.645 792.531 685.685 791.415 678.332 787.862C677.381 786.195 676.935 784.489 676.583 782.615C675.458 776.619 675.135 770.336 674.296 764.279C672.867 753.952 671.057 743.651 669.397 733.358C666.893 723.815 666.183 712.913 664.88 703.108C660.161 667.59 657.064 632.328 656.516 596.469C656.491 592.337 656.571 588.198 656.601 584.065C654.099 584.064 651.58 584.253 649.081 584.367C648.551 583.706 648.364 583.291 647.565 582.947C644.345 581.558 638.043 581.76 634.839 582.976C629.712 582.093 624.886 582.152 619.775 580.684C621.154 573.84 621.758 566.715 622.757 559.797C624.675 546.421 626.814 533.077 629.172 519.772C630.437 512.778 634.934 497.314 634.123 491.384C634.042 489.489 633.772 487.663 633.481 485.79L634.433 484.517C635.125 485.355 635.063 486.764 635.211 487.842C635.579 486.487 635.688 485.573 635.608 484.172C634.582 482.952 633.684 482.262 632.313 481.457C634.086 476.936 635.365 472.134 636.937 467.53C639.642 459.609 642.734 452.03 646.364 444.487C647.837 439.192 659.112 421.798 662.704 416.485C663.371 418.987 663.909 421.132 665.591 423.173L666.36 424.89C667.662 425.473 668.876 425.413 670.263 425.214C678.083 424.092 690.282 418.148 695.205 411.898Z"/>
	<path fill="#6ABFD5" d="M695.205 411.898C696.278 413.223 697.98 414.843 698.675 416.363C699.87 417.495 701.247 418.445 701.494 420.16C701.28 421.201 701.059 422.241 700.83 423.28C697.882 427.548 695.611 432.744 693.28 437.381C685.497 452.859 679.009 467.799 675.194 484.785C673.73 485.075 673.056 485.187 671.934 486.254C671.851 486.829 671.753 487.121 671.96 487.678L672.314 489.525C670.466 491.767 667.26 491.352 664.643 492.185C661.513 494.937 660.536 496.56 660.277 500.769C660.072 504.109 660.033 507.477 659.984 510.823C657.773 516.584 657.056 572.904 656.601 584.065C654.099 584.064 651.58 584.253 649.081 584.367C648.551 583.706 648.364 583.291 647.565 582.947C644.345 581.558 638.043 581.76 634.839 582.976C629.712 582.093 624.886 582.152 619.775 580.684C621.154 573.84 621.758 566.715 622.757 559.797C624.675 546.421 626.814 533.077 629.172 519.772C630.437 512.778 634.934 497.314 634.123 491.384C634.042 489.489 633.772 487.663 633.481 485.79L634.433 484.517C635.125 485.355 635.063 486.764 635.211 487.842C635.579 486.487 635.688 485.573 635.608 484.172C634.582 482.952 633.684 482.262 632.313 481.457C634.086 476.936 635.365 472.134 636.937 467.53C639.642 459.609 642.734 452.03 646.364 444.487C647.837 439.192 659.112 421.798 662.704 416.485C663.371 418.987 663.909 421.132 665.591 423.173L666.36 424.89C667.662 425.473 668.876 425.413 670.263 425.214C678.083 424.092 690.282 418.148 695.205 411.898Z"/>
	<path fill="#FEFEFE" d="M664.643 492.185C667.529 475.703 678.011 451.972 686.474 437.455C690.223 431.024 696.786 423.516 698.675 416.363C699.87 417.495 701.247 418.445 701.494 420.16C701.28 421.201 701.059 422.241 700.83 423.28C697.882 427.548 695.611 432.744 693.28 437.381C685.497 452.859 679.009 467.799 675.194 484.785C673.73 485.075 673.056 485.187 671.934 486.254C671.851 486.829 671.753 487.121 671.96 487.678L672.314 489.525C670.466 491.767 667.26 491.352 664.643 492.185Z"/>
	<path fill="#FEFEFE" d="M646.364 444.487C646.221 447.894 637.225 481 635.608 484.172C634.582 482.952 633.684 482.262 632.313 481.457C634.086 476.936 635.365 472.134 636.937 467.53C639.642 459.609 642.734 452.03 646.364 444.487Z"/>
	<path fill="#094063" d="M671.96 487.678C671.753 487.121 671.851 486.829 671.934 486.254C673.056 485.187 673.73 485.075 675.194 484.785L678.163 484.285L680.846 485.021C688.81 494.178 688.368 505.626 687.577 516.875C687.112 523.481 686.193 532.242 680.778 536.792C678.443 538.754 675.5 539.481 672.503 539.074C669.025 538.601 665.976 536.952 663.906 534.089C659.512 528.011 660.156 518.038 659.984 510.823C660.033 507.477 660.072 504.109 660.277 500.769C660.536 496.56 661.513 494.937 664.643 492.185C667.26 491.352 670.466 491.767 672.314 489.525L671.96 487.678Z"/>
	<path fill="#0C1F35" d="M671.96 487.678C671.753 487.121 671.851 486.829 671.934 486.254C673.056 485.187 673.73 485.075 675.194 484.785L678.163 484.285L680.846 485.021C680.321 486.166 679.799 487.287 679.406 488.486L677.947 488.889C676.093 487.691 674.098 487.796 671.96 487.678Z"/>
	<path fill="#FEFEFE" d="M679.406 488.486L681.669 490.854C684.802 494.103 685.95 497.035 687.233 501.233C685.965 498.894 684.895 496.865 682.93 495.023C682.726 494.831 682.526 494.633 682.323 494.44C680.935 493.126 679.513 492.032 677.919 490.984C677.532 489.819 677.632 489.965 677.947 488.889L679.406 488.486Z"/>
	<path fill="#FEFEFE" d="M671.716 494.064C673.845 493.862 676.101 493.788 678.177 494.359C681.065 495.153 683.405 497.153 684.795 499.787C688.428 506.669 686.696 521.094 684.191 528.274C682.607 532.816 681.011 535.29 676.669 537.386C673.739 537.974 670.919 537.968 668.28 536.377C665.12 534.472 663.338 531.173 662.446 527.691C660.522 520.183 659.72 504.632 664.053 497.834C665.803 495.088 668.797 494.734 671.716 494.064Z"/>
	<path fill="#9AD5E7" d="M679.046 519.849C680.31 520.059 679.81 519.777 680.609 520.572C680.196 522.594 679.401 524.618 677.722 525.933L676.673 525.52C675.397 524.627 674.371 523.791 673.331 522.628L673.571 522.028C675.474 521.636 676.894 521.139 678.571 520.14C678.73 520.044 678.888 519.946 679.046 519.849Z"/>
	<path fill="#094063" d="M700.83 423.28C701.753 422.787 702.352 421.5 702.884 420.631L702.341 419.523L703.115 420.576L703.385 420.652L703.416 421.416L703.852 422.048C702.449 428.039 698.784 433.838 695.964 439.29C688.932 452.881 680.266 469.045 678.163 484.285L675.194 484.785C679.009 467.799 685.497 452.859 693.28 437.381C695.611 432.744 697.882 427.548 700.83 423.28Z"/>
	<path fill="#D7A7A3" d="M698.384 602.84C699.559 604.025 700.704 604.996 702.069 605.959L702.909 605.813C703.808 602.094 705.136 599.919 707.556 596.967C707.405 598.669 706.162 600.114 705.545 601.704C705.123 602.794 705.288 602.882 705.728 603.929C711.923 608.516 719.763 612.794 724.268 619.164C721.722 637.663 726.28 663.378 726.689 682.72C720.762 682.763 714.608 683.076 708.796 681.752C714.223 681.447 719.775 681.971 725.256 681.747C725.714 676.545 724.937 670.986 724.584 665.775C723.764 653.66 722.43 641.256 722.443 629.127C715.443 628.4 697.178 625.577 692.425 620.488C691.686 617.386 692.22 615.464 693.598 612.615C694.735 609.193 696.671 606.003 698.384 602.84Z"/>
	<path fill="#9AD5E7" d="M988.493 568.143C988.142 632.847 974.65 696.806 948.836 756.139C946.436 762.521 942.53 768.388 939.529 774.514C914.614 825.369 879.62 872.843 836.142 909.408C829.14 915.21 821.858 920.665 814.323 925.755C809.035 929.256 803.491 932.392 798.279 936.007C794.284 936.279 770.495 936.629 767.905 935.653L767.963 934.957C768.185 932.776 768.031 930.425 767.779 928.245C767.287 923.985 766.164 920.901 762.744 918.233L762.157 916.125C762.722 915.738 763.55 915.27 763.98 914.745C764.155 914.532 764.644 913.76 764.722 913.416C766.038 907.561 760.821 847.946 759.676 837.711C758.158 822.989 755.868 808.138 753.367 793.56C760.527 793.522 767.97 791.799 774.981 790.415C794.566 786.547 813.525 781.47 832.5 775.311C816.129 759.529 795.271 735.792 785.16 715.337C790.448 713.889 796.104 710.871 801.306 708.886C830.89 697.596 858.936 684.464 885.47 667.056C896.226 659.999 906.071 651.578 916.836 644.641C917.609 644.143 918.219 643.825 918.713 642.992C921.161 638.869 939.71 624.128 944.716 619.061C948.254 615.479 951.467 611.713 955.282 608.4C956.11 607.681 960.364 604.376 960.577 603.478C960.761 602.7 960.188 602.106 960.616 601.301C963.433 595.999 969.115 590.783 973.075 586.252C978.283 580.292 983.383 574.189 988.493 568.143Z"/>
	<defs>
		<linearGradient id="gradient_1" gradientUnits="userSpaceOnUse" x1="815.60626" y1="436.41708" x2="886.31213" y2="562.10339">
			<stop offset="0" stop-color="#3696BB"/>
			<stop offset="1" stop-color="#56B1CE"/>
		</linearGradient>
	</defs>
	<path fill="url(#gradient_1)" d="M955.83 354.891C970.247 391.933 977.321 431.704 983.239 470.839C983.039 471.082 982.836 471.322 982.638 471.566C980.421 474.31 979.04 477.619 976.769 480.38C940.151 524.582 894.94 560.889 843.876 587.102C828.898 594.826 813.225 601.573 797.719 608.165C778.633 616.278 759.598 624.744 739.81 630.996C738.587 628.641 737.565 625.182 735.701 623.336C735.054 623.374 734.421 623.418 733.779 623.509C733.619 623.531 733.459 623.558 733.299 623.582C733.116 622.56 739.294 616.822 740.414 615.709C755.697 600.505 771.073 584.519 782.207 565.937C786.279 559.141 791.674 549.942 792.358 541.884C793.189 532.103 780.74 506.975 776.412 496.829C774.835 493.132 771.65 488.442 770.812 484.676C770.766 484.467 770.727 484.257 770.684 484.047C774.157 486.302 786.509 519.065 789.526 525.338C796.534 521.121 803.195 516.182 809.99 511.623C826.887 500.288 846.919 486.998 861.133 472.51C865.738 468.486 869.872 463.991 874.402 459.898C877.68 456.937 881.701 454.323 884.763 451.233C885.252 450.739 885.538 450.175 885.853 449.567C888.451 446.332 891.541 443.493 894.359 440.448C898.964 435.47 903.389 430.335 908.093 425.447L908.068 425.822L908.771 425.37L908.515 424.381C909.152 423.379 909.929 422.429 910.632 421.47C915.86 413.96 921.942 406.99 927.27 399.528C937.599 385.063 946.786 370.177 955.83 354.891Z"/>
	<path fill="#49A3C3" d="M910.632 421.47C911.357 421.037 912.052 420.609 912.82 420.256C913.16 421.958 913.314 423.002 912.808 424.679L912.114 425.277C910.79 425.131 910.221 424.935 909.011 424.484C908.853 424.426 908.68 424.416 908.515 424.381C909.152 423.379 909.929 422.429 910.632 421.47Z"/>
	<path fill="#49A3C3" d="M952.267 401.017L950.623 401.063C949.837 399.523 949.003 398.859 947.607 397.845L947.099 397.484C946.91 396.698 947.256 396.145 947.496 395.387C944.706 394.954 941.422 394.946 939.644 392.526C940.04 389.574 942.519 390.734 944.208 388.941C944.2 387.871 944.271 387.16 943.757 386.189C943.659 386.004 943.531 385.837 943.418 385.661C944.345 385.658 945.272 385.665 946.199 385.682C946.365 384.526 946.083 384.921 946.797 384.356C948.251 384.614 948.546 384.701 949.689 385.623C950.707 387.807 950.401 390.344 950.382 392.699C950.364 395.066 950.646 395.819 952.307 397.466C952.423 397.581 952.541 397.693 952.658 397.807C954.576 397.227 956.011 396.721 958.012 397.085L958.902 397.693C958.939 399.322 957.964 400.319 957 401.569C956.48 402.244 956.096 402.847 955.706 403.598L955.514 403.682L955.109 402.765L955.01 403.246L954.407 402.707C953.865 402.231 953.351 401.873 952.787 401.443C952.609 401.308 952.44 401.159 952.267 401.017Z"/>
	<path fill="#49A3C3" d="M898.846 453.541C901.187 453.144 902.498 453.817 904.468 455.051C905.805 455.888 907.312 457.49 907.523 459.073C907.633 459.9 907.632 459.665 907.099 460.259L906.142 459.844C904.909 460.804 903.718 462.001 902.132 462.255C901.041 460.662 901.16 457.785 900.555 455.809C899.793 455.072 899.33 454.485 898.846 453.541Z"/>
	<path fill="#49A3C3" d="M833.117 531.678L833.755 531.568C834.539 532.282 834.395 532.249 834.594 533.212C833.923 534.367 832.904 534.613 831.726 535.089C830.944 535.406 830.99 535.602 830.567 536.3C831.746 537.449 832.273 538.037 832.565 539.741L831.724 540.045C830.295 539.156 828.889 538.246 828.26 536.596C827.747 535.254 827.842 535.012 828.302 533.727C829.33 532.778 830.014 532.143 831.343 531.631L832.203 532.096L833.117 531.678Z"/>
	<path fill="#9AD5E7" d="M603.601 730.739C604.204 746.591 604.391 767.26 607.111 782.479C609.867 784.954 612.83 786.513 616.04 788.3C615.616 803.695 615.097 819.129 614.96 834.528C614.624 844.292 612.408 910.354 614.627 916.955C615.592 917.742 615.049 917.455 616.26 917.808L615.875 918.179C613.609 918.465 609.932 922.051 607.788 923.334C601.697 926.977 594.662 929.496 588.817 933.415L588.892 935.695C587.848 936.585 586.698 936.723 585.371 936.759C573.989 937.064 562.352 936.492 550.927 936.481L463.894 936.268C453.042 936.222 442.137 936.066 431.29 936.312C419.928 936.57 408.199 937.308 396.862 936.502C376.565 936.669 356.238 936.094 335.922 936.298C328.395 936.373 320.654 936.012 313.168 936.716C312.112 936.484 312.541 936.551 311.462 936.424L310.702 936.34L311.557 935.122L311.372 935.833C311.536 935.591 311.669 935.325 311.862 935.106C313.449 933.315 330.574 924.417 334.395 921.753C343.78 915.211 357.549 902.657 365.694 894.18C381.581 877.645 393.706 857.594 408.643 840.238C422.037 824.841 436.646 810.546 452.33 797.49C499.835 757.69 543.095 741 603.601 730.739Z"/>
	<path fill="#094063" d="M632.435 441.006C634.211 439.459 635.682 437.272 637.267 435.51C641.735 430.543 649.039 422.844 655.828 421.421C644.586 439.397 636.759 457.458 630.823 477.817C631.17 479.27 631.525 480.188 632.313 481.457C633.684 482.262 634.582 482.952 635.608 484.172C635.688 485.573 635.579 486.487 635.211 487.842C635.063 486.764 635.125 485.355 634.433 484.517L633.481 485.79C633.772 487.663 634.042 489.489 634.123 491.384C634.934 497.314 630.437 512.778 629.172 519.772C626.814 533.077 624.675 546.421 622.757 559.797C621.758 566.715 621.154 573.84 619.775 580.684C624.886 582.152 629.712 582.093 634.839 582.976C638.043 581.76 644.345 581.558 647.565 582.947C648.364 583.291 648.551 583.706 649.081 584.367C651.58 584.253 654.099 584.064 656.601 584.065C656.571 588.198 656.491 592.337 656.516 596.469C657.064 632.328 660.161 667.59 664.88 703.108C666.183 712.913 666.893 723.815 669.397 733.358C671.057 743.651 672.867 753.952 674.296 764.279C675.135 770.336 675.458 776.619 676.583 782.615C676.935 784.489 677.381 786.195 678.332 787.862C685.685 791.415 700.645 792.531 709.189 793.872C724.072 795.355 738.513 795.302 753.367 793.56C755.868 808.138 758.158 822.989 759.676 837.711C760.821 847.946 766.038 907.561 764.722 913.416C764.644 913.76 764.155 914.532 763.98 914.745C763.55 915.27 762.722 915.738 762.157 916.125L754.747 916.625C753.291 916.765 750.871 916.665 749.77 917.547L749.913 918.143C745.532 926.739 730.088 926.634 725.459 933.229C724.886 934.047 725.333 935.014 725.548 935.859C725.315 935.994 725.105 936.177 724.851 936.264C722.687 937.008 644.166 936.749 635.507 936.502C633.741 936.452 632.043 936.496 630.414 935.738C631.043 935.554 631.547 935.31 632.131 935.021C633.791 930.82 632.188 924.194 631.046 919.928L630.293 918.528C626.063 917.525 620.574 917.304 616.26 917.808C615.049 917.455 615.592 917.742 614.627 916.955C612.408 910.354 614.624 844.292 614.96 834.528C615.097 819.129 615.616 803.695 616.04 788.3C612.83 786.513 609.867 784.954 607.111 782.479C604.391 767.26 604.204 746.591 603.601 730.739C602.227 700.808 603.32 671.055 605.496 641.193C606.924 619.685 610.058 598.408 611.875 576.948C614.892 541.312 616.258 505.706 623.604 470.603C624.815 464.815 625.7 458.567 627.499 452.946C628.768 448.984 630.564 445.576 632.12 441.787L632.435 441.006Z"/>
	<path fill="#9AD5E7" d="M669.397 733.358C671.057 743.651 672.867 753.952 674.296 764.279C675.135 770.336 675.458 776.619 676.583 782.615C676.935 784.489 677.381 786.195 678.332 787.862C685.685 791.415 700.645 792.531 709.189 793.872C724.072 795.355 738.513 795.302 753.367 793.56C755.868 808.138 758.158 822.989 759.676 837.711C760.821 847.946 766.038 907.561 764.722 913.416C764.644 913.76 764.155 914.532 763.98 914.745C763.55 915.27 762.722 915.738 762.157 916.125L754.747 916.625C753.291 916.765 750.871 916.665 749.77 917.547L749.913 918.143C745.532 926.739 730.088 926.634 725.459 933.229C724.886 934.047 725.333 935.014 725.548 935.859C725.315 935.994 725.105 936.177 724.851 936.264C722.687 937.008 644.166 936.749 635.507 936.502C633.741 936.452 632.043 936.496 630.414 935.738C631.043 935.554 631.547 935.31 632.131 935.021C633.791 930.82 632.188 924.194 631.046 919.928C631.16 919.513 631.421 919.103 631.617 918.718C632.575 918.562 633.468 918.528 634.266 917.929C637.7 915.353 653.227 844.243 654.706 836.644C658.498 814.471 661.733 792.207 664.407 769.872C665.289 762.299 666.078 754.716 666.773 747.124C667.083 743.716 667.087 740.09 667.609 736.725C667.872 735.03 668.006 734.372 669.397 733.358Z"/>
	<path fill="#094063" d="M753.367 793.56C755.868 808.138 758.158 822.989 759.676 837.711C760.821 847.946 766.038 907.561 764.722 913.416C764.644 913.76 764.155 914.532 763.98 914.745C763.55 915.27 762.722 915.738 762.157 916.125L754.747 916.625L745.877 916.661C738.66 890.346 730.987 864.158 722.862 838.108C720.203 830.463 718.146 822.554 715.672 814.839C713.465 807.958 710.574 800.954 709.189 793.872C724.072 795.355 738.513 795.302 753.367 793.56Z"/>
	<path fill="#FEFEFE" d="M632.435 441.006C634.211 439.459 635.682 437.272 637.267 435.51C641.735 430.543 649.039 422.844 655.828 421.421C644.586 439.397 636.759 457.458 630.823 477.817C631.17 479.27 631.525 480.188 632.313 481.457C633.684 482.262 634.582 482.952 635.608 484.172C635.688 485.573 635.579 486.487 635.211 487.842C635.063 486.764 635.125 485.355 634.433 484.517L633.481 485.79C633.772 487.663 634.042 489.489 634.123 491.384C634.934 497.314 630.437 512.778 629.172 519.772C626.814 533.077 624.675 546.421 622.757 559.797C621.758 566.715 621.154 573.84 619.775 580.684C619.222 584.468 618.581 588.265 618.243 592.074L617.773 595.529C616.542 606.721 614.495 618.452 614.575 629.704C614.878 672.512 628.841 746.49 645.995 784.998C648.336 790.255 651.252 795.144 654.227 800.056C640.715 798.511 628.382 793.747 616.04 788.3C612.83 786.513 609.867 784.954 607.111 782.479C604.391 767.26 604.204 746.591 603.601 730.739C602.227 700.808 603.32 671.055 605.496 641.193C606.924 619.685 610.058 598.408 611.875 576.948C614.892 541.312 616.258 505.706 623.604 470.603C624.815 464.815 625.7 458.567 627.499 452.946C628.768 448.984 630.564 445.576 632.12 441.787L632.435 441.006Z"/>
	<path fill="#0C1F35" d="M634.123 491.384C633.032 495.074 632.144 500.356 629.163 502.943C628.423 503.066 628.015 503.321 627.331 502.902C625.637 501.863 624.925 499.582 624.584 497.73C623.836 493.665 623.817 489.111 626.217 485.61C627.472 484.901 627.969 485.257 629.328 485.488C630.507 486.279 632.128 485.891 633.481 485.79C633.772 487.663 634.042 489.489 634.123 491.384Z"/>
	<path fill="#094063" d="M629.328 485.488L629.003 484.446L627.177 483.705C626.892 480.693 629.587 480.936 630.514 478.65C630.625 478.376 630.72 478.095 630.823 477.817C631.17 479.27 631.525 480.188 632.313 481.457C633.684 482.262 634.582 482.952 635.608 484.172C635.688 485.573 635.579 486.487 635.211 487.842C635.063 486.764 635.125 485.355 634.433 484.517L633.481 485.79C632.128 485.891 630.507 486.279 629.328 485.488Z"/>
	<path fill="#0C1F35" d="M619.775 580.684C624.886 582.152 629.712 582.093 634.839 582.976C638.043 581.76 644.345 581.558 647.565 582.947C648.364 583.291 648.551 583.706 649.081 584.367C651.58 584.253 654.099 584.064 656.601 584.065C656.571 588.198 656.491 592.337 656.516 596.469C654.315 596.542 651.668 596.547 649.629 597.454C649.486 598.087 649.547 598.814 648.938 599.165C644.508 601.725 628.615 597.192 623.6 596.083C621.694 596.264 619.662 595.801 617.773 595.529L618.243 592.074C618.581 588.265 619.222 584.468 619.775 580.684Z"/>
	<path fill="#0C1F35" d="M619.775 580.684C624.886 582.152 629.712 582.093 634.839 582.976C631.036 588.206 634.813 595.146 631.896 596.857L628.86 596.327C627.012 596.266 625.441 595.558 623.6 596.083C621.694 596.264 619.662 595.801 617.773 595.529L618.243 592.074C618.581 588.265 619.222 584.468 619.775 580.684Z"/>
	<path fill="#0E435D" d="M618.243 592.074C620.548 590.66 621.901 589.793 624.601 590.478C626.638 590.995 627.672 592.375 628.747 594.068C628.799 594.658 628.97 594.944 628.62 595.444L628.86 596.327C627.012 596.266 625.441 595.558 623.6 596.083C621.694 596.264 619.662 595.801 617.773 595.529L618.243 592.074Z"/>
	<path fill="#FEFEFE" d="M634.839 582.976C638.043 581.76 644.345 581.558 647.565 582.947C648.364 583.291 648.551 583.706 649.081 584.367C646.021 584.518 637.919 583.469 636.086 585.846C634.687 587.662 634.881 591.698 635.42 593.784C635.718 594.942 636.202 596.234 637.343 596.77C640.382 598.199 646.266 597.512 649.629 597.454C649.486 598.087 649.547 598.814 648.938 599.165C644.508 601.725 628.615 597.192 623.6 596.083C625.441 595.558 627.012 596.266 628.86 596.327L631.896 596.857C634.813 595.146 631.036 588.206 634.839 582.976Z"/>
	<path fill="#49A3C3" d="M620.325 466.082C620.357 465.829 620.383 465.575 620.42 465.322C621.118 460.468 628.416 443.951 632.435 441.006L632.12 441.787C630.564 445.576 628.768 448.984 627.499 452.946C625.7 458.567 624.815 464.815 623.604 470.603C616.258 505.706 614.892 541.312 611.875 576.948C610.058 598.408 606.924 619.685 605.496 641.193C567.439 644.105 512.818 660.762 479.003 678.795C467.288 685.043 455.892 692.905 445.103 700.632C438.438 705.405 431.561 710.037 425.535 715.621C420.555 720.235 391.577 751.172 389.723 751.954C389.08 753.407 388.556 755.043 387.104 755.858C384.966 758.465 383.053 760.545 380.245 762.441C380.69 763.262 380.432 762.887 381.01 763.571C378.263 767.315 374.576 774.118 371.188 776.87C370.159 776.802 369.163 776.732 368.14 776.599L367.948 777.335L370.131 778.157C370.17 778.488 370.299 778.82 370.249 779.15C369.825 781.973 339.683 829.67 335.659 835.604C329.813 844.202 323.679 852.601 317.268 860.787C298.985 883.979 273.924 907.077 247.578 920.793C235.487 927.088 222.375 931.753 209.426 935.92C226.298 936.197 243.237 936.865 260.103 936.834L295.752 936.878C300.889 936.913 306.032 936.656 311.163 936.939C311.935 936.981 312.431 936.92 313.168 936.716C320.654 936.012 328.395 936.373 335.922 936.298C356.238 936.094 376.565 936.669 396.862 936.502C408.199 937.308 419.928 936.57 431.29 936.312C442.137 936.066 453.042 936.222 463.894 936.268L550.927 936.481C562.352 936.492 573.989 937.064 585.371 936.759C586.698 936.723 587.848 936.585 588.892 935.695L588.817 933.415C594.662 929.496 601.697 926.977 607.788 923.334C609.932 922.051 613.609 918.465 615.875 918.179L616.26 917.808C620.574 917.304 626.063 917.525 630.293 918.528L631.046 919.928C632.188 924.194 633.791 930.82 632.131 935.021C631.547 935.31 631.043 935.554 630.414 935.738C632.043 936.496 633.741 936.452 635.507 936.502C644.166 936.749 722.687 937.008 724.851 936.264C725.105 936.177 725.315 935.994 725.548 935.859C725.333 935.014 724.886 934.047 725.459 933.229C730.088 926.634 745.532 926.739 749.913 918.143L749.77 917.547C750.871 916.665 753.291 916.765 754.747 916.625L762.157 916.125L762.744 918.233C766.164 920.901 767.287 923.985 767.779 928.245C768.031 930.425 768.185 932.776 767.963 934.957L767.905 935.653C770.495 936.629 794.284 936.279 798.279 936.007C808.219 936.251 878.318 935.519 880.577 936.373C881.567 936.747 882.037 936.989 882.43 938.006C881.75 938.792 881.597 938.915 880.643 939.215C876.044 940.661 853.929 939.646 847.707 939.652L745.161 939.476L293.364 939.781C269.945 939.716 85.8158 940.493 82.2534 938.735L82.0533 937.756L82.6486 936.919C86.3014 935.087 127.917 936.167 136.323 935.975C141.852 936.231 147.389 936.271 152.921 936.096C172.039 930.878 191.031 922.538 207.944 912.235C209.762 911.491 211.455 910.498 213.173 909.551L215.182 907.798C221.387 905.671 240.361 889.466 246.037 884.334C250.869 879.989 255.754 875.766 260.148 870.966C283.591 848.291 306.43 814.533 322.908 786.367L324.397 783.797C331.56 772.749 338.199 761.215 344.868 749.858L345.246 749.191C349.188 743.549 352.504 737.463 356.339 731.739C360.515 725.504 365.188 719.628 369.465 713.465L371.563 710.93C414.749 655.708 474.62 623.1 540.041 601.054C559.038 594.653 578.363 588.836 597.981 584.654C596.021 570.608 594.236 555.026 595.525 540.888C595.9 536.77 599.972 517.292 602.409 515.277C605.086 509.284 606.788 502.568 609.048 496.374C611.296 490.21 619.901 470.652 620.325 466.082Z"/>
	<path fill="#FEFEFE" d="M626.29 452.394C625.557 463.036 621.812 473.979 619.952 484.537C617.282 499.692 615.998 515.126 614.346 530.414C611.692 528.936 608.773 526.812 605.584 527.676C603.496 528.243 600.582 530.345 599.678 532.375C599.453 532.881 599.48 532.978 599.447 533.458C602.67 531.222 604 527.616 608.693 528.61C610.737 529.043 612.557 530.321 614.246 531.489C612.938 548.925 611.917 566.408 610.285 583.816C609.072 596.767 607.287 609.658 606.166 622.617C604.562 617.567 603.952 612.22 602.923 607.031C599.059 587.547 593.169 554.015 597.775 534.935L597.52 535.321C598.445 531.203 602.648 518.073 602.409 515.277C605.086 509.284 606.788 502.568 609.048 496.374C611.296 490.21 619.901 470.652 620.325 466.082C622.918 462.068 624.527 456.844 626.29 452.394Z"/>
	<path fill="#0C1F35" d="M616.26 917.808C620.574 917.304 626.063 917.525 630.293 918.528L631.046 919.928C632.188 924.194 633.791 930.82 632.131 935.021C631.547 935.31 631.043 935.554 630.414 935.738C622.276 934.072 594.787 938.182 590.064 935.96C589.385 935.64 589.079 934.118 588.817 933.415C594.662 929.496 601.697 926.977 607.788 923.334C609.932 922.051 613.609 918.465 615.875 918.179L616.26 917.808Z"/>
	<path fill="#FEFEFE" d="M616.26 917.808C620.574 917.304 626.063 917.525 630.293 918.528C629.258 919.665 628.095 920.922 626.773 921.72C624.981 922.801 622.399 923.586 620.335 922.869C617.974 922.048 616.865 920.337 615.875 918.179L616.26 917.808Z"/>
	<path fill="#0C1F35" d="M754.747 916.625L762.157 916.125L762.744 918.233C766.164 920.901 767.287 923.985 767.779 928.245C768.031 930.425 768.185 932.776 767.963 934.957C755.417 933.498 738.808 936.372 725.548 935.859C725.333 935.014 724.886 934.047 725.459 933.229C730.088 926.634 745.532 926.739 749.913 918.143L749.77 917.547C750.871 916.665 753.291 916.765 754.747 916.625Z"/>
	<path fill="#EAC8B2" d="M754.747 916.625L762.157 916.125L762.744 918.233C762.253 919.28 761.779 920.088 760.826 920.791C759.29 921.924 756.586 921.991 754.82 921.582C752.361 921.012 751.244 920.294 749.913 918.143L749.77 917.547C750.871 916.665 753.291 916.765 754.747 916.625Z"/>
	<path fill="#FEFEFE" d="M370.17 754.991C370.718 754.498 371.49 754.344 372.185 754.589C372.879 754.834 373.384 755.438 373.502 756.164C373.62 756.891 373.332 757.624 372.751 758.076C371.896 758.741 370.668 758.609 369.972 757.778C369.277 756.947 369.365 755.715 370.17 754.991Z"/>
	<path fill="#FEFEFE" d="M487.128 643.651C488.116 643.73 488.74 643.873 489.63 644.31C490.529 645.497 490.325 646.874 490.325 648.292C489.15 648.104 488.453 647.877 487.442 647.247C486.691 646.009 486.951 645.008 487.128 643.651Z"/>
	<path fill="#FEFEFE" d="M400.494 786.805C401.003 786.415 401.687 786.34 402.268 786.613C402.848 786.885 403.228 787.459 403.253 788.1C403.277 788.741 402.942 789.342 402.383 789.658C401.6 790.102 400.606 789.863 400.109 789.112C399.612 788.362 399.78 787.354 400.494 786.805Z"/>
	<path fill="#9AD5E7" d="M189.369 782.063C189.941 772.305 189.455 762.504 190.144 752.711C192.526 715.923 201.765 679.904 217.386 646.511C226.644 626.564 244.208 597.715 265.678 590.029C274.44 586.893 282.906 588.023 291.154 591.943C321.766 606.493 344.401 647.268 358.406 676.854C361.307 682.985 364.408 689.157 366.879 695.468C368.736 700.209 369.505 705.249 371.222 710.004L371.563 710.93L369.465 713.465C365.188 719.628 360.515 725.504 356.339 731.739C352.504 737.463 349.188 743.549 345.246 749.191L344.868 749.858C338.199 761.215 331.56 772.749 324.397 783.797L322.908 786.367C306.43 814.533 283.591 848.291 260.148 870.966C255.754 875.766 250.869 879.989 246.037 884.334C240.361 889.466 221.387 905.671 215.182 907.798L213.173 909.551C213.169 909.317 213.16 909.083 213.16 908.849C213.176 899.697 229.646 853.37 236.025 846.843C230.15 829.926 219.712 811.909 207.221 798.974C201.532 793.081 195.085 787.946 189.369 782.063Z"/>
	<path fill="#CBE5EA" d="M260.148 870.966C259.512 864.166 261.461 854.532 262.339 847.664C267.51 807.213 279.233 767.104 302.52 733.221C313.191 717.695 329.663 698.033 348.993 694.483C348.993 699.723 348.721 704.959 348.179 710.17C347.672 715.406 343.468 746.166 344.203 748.863C344.308 749.247 344.646 749.526 344.868 749.858C338.199 761.215 331.56 772.749 324.397 783.797L322.908 786.367C306.43 814.533 283.591 848.291 260.148 870.966Z"/>
	<path fill="#9AD5E7" d="M322.908 786.367C315.068 773.89 310.18 759.562 306.93 745.275L306.429 744.764L307.085 744.893L306.548 743.122L306.511 743.121L306.156 744.191L306.984 744.107C309.091 746.931 310.446 755.915 311.807 759.734C314.809 768.157 319.103 776.586 324.397 783.797L322.908 786.367Z"/>
	<path fill="#6ABFD5" d="M215.182 907.798C215.113 896.889 229.913 858.775 236.145 848.37C240.835 859.646 243.337 872.474 246.037 884.334C240.361 889.466 221.387 905.671 215.182 907.798Z"/>
	<path fill="#CBE5EA" d="M350.103 694.203C351.976 694.551 353.951 694.849 355.746 695.497C363.118 698.158 366.53 706.885 369.465 713.465C365.188 719.628 360.515 725.504 356.339 731.739C352.504 737.463 349.188 743.549 345.246 749.191C345.652 744.945 346.769 740.746 347.273 736.491C348.932 722.502 350.206 708.296 350.103 694.203Z"/>
	<path fill="#6ABFD5" d="M180.568 774.612C183.529 777.063 186.463 779.547 189.369 782.063C195.085 787.946 201.532 793.081 207.221 798.974C219.712 811.909 230.15 829.926 236.025 846.843C229.646 853.37 213.176 899.697 213.16 908.849C213.16 909.083 213.169 909.317 213.173 909.551C211.455 910.498 209.762 911.491 207.944 912.235C206.968 907.543 194.2 891.95 190.831 886.733C177.249 866.037 165.064 844.457 154.357 822.138C160.787 805.06 167.717 787.978 180.568 774.612Z"/>
	<path fill="#342B2B" d="M653.859 342.986C651.861 339.9 650.446 337 651.212 333.237C652.087 328.94 655.667 324.088 659.433 321.877C662.728 319.943 666.845 319.891 670.424 321.036C676.076 322.844 679.409 327.763 684.526 330.183C688.254 331.946 692.769 332.431 696.727 333.498C706.194 336.051 713.851 344.308 717.995 352.932C721.758 360.765 723.7 370.589 720.539 378.942C719.014 382.973 710.441 395.495 706.786 397.035C703.919 398.243 700.146 398.854 697.069 399.378C695.746 399.221 695.31 398.868 694.194 399.718C693.94 401.161 693.964 402.571 693.965 404.029C694.254 406.702 694.656 409.267 695.205 411.898C690.282 418.148 678.083 424.092 670.263 425.214C668.876 425.413 667.662 425.473 666.36 424.89L665.591 423.173C663.909 421.132 663.371 418.987 662.704 416.485C659.112 421.798 647.837 439.192 646.364 444.487C642.734 452.03 639.642 459.609 636.937 467.53C635.365 472.134 634.086 476.936 632.313 481.457C631.525 480.188 631.17 479.27 630.823 477.817C636.759 457.458 644.586 439.397 655.828 421.421C658.414 418.676 660.467 415.766 662.546 412.636L661.141 397.758L660.634 397.793C653.935 398.206 643.313 397.645 638.155 392.78C637.149 391.831 636.511 390.728 636.597 389.302C636.733 387.049 639.529 383.819 641.303 382.508C641.411 382.386 641.543 382.281 641.626 382.141C642.268 381.059 641.849 379.893 641.546 378.789C641.502 378.628 641.454 378.468 641.408 378.307L641.855 377.822L642.325 376.362C642.837 374.494 642.877 373.659 641.96 371.882C641.655 371.292 641.078 370.833 640.612 370.391L638.971 368.839C638.771 367.594 638.972 366.968 639.701 365.911C641.858 362.785 645.514 360.661 648.419 358.267C648.843 352.937 649.223 349.535 652.44 344.992L653.859 342.986Z"/>
	<path fill="#EAC8B2" d="M649.596 358.499C649.806 356.296 649.719 353.798 650.103 351.658C650.938 346.999 656.292 341.145 659.942 338.238C662.031 336.574 664.719 335.068 667.49 335.447C669.194 335.679 670.617 336.681 671.575 338.088C674.893 342.967 672.446 352.623 671.223 358.025C670.607 360.745 668.495 365.403 668.989 367.989C670.03 369.524 670.945 370.184 672.787 370.482C676.631 371.106 683.144 368.618 685.934 371.796C687.435 373.505 687.471 376.116 687.151 378.239C686.776 380.725 685.826 382.965 683.731 384.467C682.855 385.096 682.578 385.044 681.561 385.198C680.377 384.58 679.997 383.868 679.288 382.781L678.866 382.799C678.669 383.424 678.328 383.916 678.614 384.561C679.012 385.458 679.43 385.568 680.177 386.115C683.323 388.42 683.693 393.148 686.528 395.947C688.666 398.056 693.081 398.632 693.53 400.732C693.762 401.82 693.689 402.926 693.965 404.029C694.254 406.702 694.656 409.267 695.205 411.898C690.282 418.148 678.083 424.092 670.263 425.214C668.876 425.413 667.662 425.473 666.36 424.89L665.591 423.173C663.909 421.132 663.371 418.987 662.704 416.485C659.112 421.798 647.837 439.192 646.364 444.487C642.734 452.03 639.642 459.609 636.937 467.53C635.365 472.134 634.086 476.936 632.313 481.457C631.525 480.188 631.17 479.27 630.823 477.817C636.759 457.458 644.586 439.397 655.828 421.421C658.414 418.676 660.467 415.766 662.546 412.636L661.141 397.758L660.634 397.793C653.935 398.206 643.313 397.645 638.155 392.78C637.149 391.831 636.511 390.728 636.597 389.302C636.733 387.049 639.529 383.819 641.303 382.508C641.411 382.386 641.543 382.281 641.626 382.141C642.268 381.059 641.849 379.893 641.546 378.789C641.502 378.628 641.454 378.468 641.408 378.307L641.855 377.822L642.325 376.362C644.152 375.477 644.996 375.827 646.928 376.095C650.346 376.569 651.678 376.159 654.41 374.108C652.406 374.318 650.576 374.821 648.64 375.368C645.993 374.136 641.592 372.175 640.818 369.093C640.386 367.373 641.346 365.901 642.384 364.637C644.382 362.203 647.388 360.735 649.596 358.499Z"/>
	<path fill="#0C1F35" d="M641.303 382.508C640.079 384.604 637.6 387.57 638.303 390.142C638.724 391.682 640.149 392.726 641.542 393.336C648.684 396.466 657.808 396.042 665.377 395.227C667.411 395.008 670.29 394.319 672.247 394.816C669.158 396.668 665.764 396.916 662.255 397.243C664.323 405.852 664.112 414.539 665.591 423.173C663.909 421.132 663.371 418.987 662.704 416.485C659.112 421.798 647.837 439.192 646.364 444.487C642.734 452.03 639.642 459.609 636.937 467.53C635.365 472.134 634.086 476.936 632.313 481.457C631.525 480.188 631.17 479.27 630.823 477.817C636.759 457.458 644.586 439.397 655.828 421.421C658.414 418.676 660.467 415.766 662.546 412.636L661.141 397.758L660.634 397.793C653.935 398.206 643.313 397.645 638.155 392.78C637.149 391.831 636.511 390.728 636.597 389.302C636.733 387.049 639.529 383.819 641.303 382.508Z"/>
	<path fill="#FEFEFE" d="M654.41 374.108C655.511 374.563 655.322 374.702 655.799 375.726C655.18 377.254 654.951 377.861 653.393 378.542C649.65 380.178 645.479 379.249 641.855 377.822L642.325 376.362C644.152 375.477 644.996 375.827 646.928 376.095C650.346 376.569 651.678 376.159 654.41 374.108Z"/>
	<path fill="#342B2B" d="M652.468 348.507C653.472 348.466 654.503 348.426 655.503 348.538C658.535 348.877 663.566 350.398 665.498 352.928C666.139 353.768 665.848 354.061 665.725 355.054C663.675 355.647 656.881 352.24 654.627 351.231C653.101 350.549 653.063 350.065 652.468 348.507Z"/>
	<path fill="#342B2B" d="M656.568 353.836C658.343 354.678 660.341 355.759 661.134 357.627C661.34 359.401 660.455 360.516 659.584 361.967C659.413 362.017 659.248 362.087 659.073 362.117C657.768 362.348 657.583 362.212 656.527 361.52C655.342 359.077 656.09 356.382 656.568 353.836Z"/>
	<path fill="#6ABFD5" d="M103.391 838.045C109.63 839.682 116.038 840.588 122.279 842.27C138.844 846.735 155.314 852.265 171.529 857.855C176.032 863.807 179.545 871.089 183.458 877.471C186.675 882.719 204.893 910.831 207.944 912.235C191.031 922.538 172.039 930.878 152.921 936.096L152.294 935.564C121.427 909.324 106.619 877.979 103.391 838.045Z"/>
	<path fill="#FEFEFE" d="M862.816 394.905C861.117 394.308 859.409 393.711 857.743 393.025C851.468 390.444 845.572 385.561 843.018 379.163C841.796 376.102 841.329 372.491 842.796 369.422C843.75 367.424 845.512 365.777 847.676 365.197C849.852 364.613 852.109 365.2 853.956 366.411C861.03 371.05 863.005 381.772 864.374 389.436C866.062 382.097 866.333 374.925 870.771 368.548L871.212 368.482C871.106 373.791 868.472 380.193 867.503 385.566L867.908 385.197L868.589 384.588C869.221 384.012 869.834 383.422 870.496 382.879C874.422 379.653 880.744 377.652 885.812 378.393C888.664 378.81 891.311 380.174 892.917 382.628C894.021 384.315 894.464 386.343 894.023 388.323C893.428 390.997 891.397 393.07 889.095 394.416C881.938 398.6 872.265 397.597 864.673 395.409C864.358 402.912 863.121 410.321 863.022 417.856C870.468 413.281 875.224 406.856 884.958 407.144C887.213 407.21 889.351 407.894 890.892 409.612C892.237 411.113 892.725 413.137 892.514 415.111C892.141 418.592 889.782 421.448 887.101 423.522C880.216 428.847 870.273 429.991 861.926 428.829C861.756 436.227 861.988 443.629 862.622 451.002C864.103 448.997 865.562 447.136 867.549 445.591C871.199 442.751 876.286 440.374 881.034 441.04C882.718 441.277 883.932 442.05 884.945 443.432C886.303 445.284 886.164 447.426 885.853 449.567C885.538 450.175 885.252 450.739 884.763 451.233C881.701 454.323 877.68 456.937 874.402 459.898C869.872 463.991 865.738 468.486 861.133 472.51C860.176 470.666 860.27 468.014 860.098 465.955C853.623 466.143 847.241 466.554 841.324 463.32C835.294 460.025 832.131 454.68 830.197 448.312C830.59 447.118 831.025 445.917 831.598 444.796C833.231 441.601 836.255 440.66 839.464 439.702C844.351 440.767 848.927 442.347 852.785 445.651C856.28 448.645 858.888 451.615 859.218 456.327L859.256 456.957L859.717 457.177C860.481 448.05 858.902 438.727 859.833 429.491L859.919 428.671C857.843 428.575 855.769 428.339 853.758 427.8C846.355 425.816 837.82 421.008 834.09 414.074C832.635 411.369 831.841 408.164 832.799 405.157C833.428 403.18 834.741 401.57 836.624 400.669C838.8 399.629 841.182 399.858 843.386 400.67C852.171 403.909 856.452 412.559 860.291 420.375C860.839 411.84 861.459 403.357 862.816 394.905Z"/>
	<path fill="#0C1F35" d="M693.965 404.029C693.964 402.571 693.94 401.161 694.194 399.718C695.31 398.868 695.746 399.221 697.069 399.378C696.861 402.611 696.78 405.665 697.081 408.895C699.797 412.586 703.593 416.722 704.13 421.41L703.852 422.048L703.416 421.416L703.385 420.652L703.115 420.576L702.341 419.523L702.884 420.631C702.352 421.5 701.753 422.787 700.83 423.28C701.059 422.241 701.28 421.201 701.494 420.16C701.247 418.445 699.87 417.495 698.675 416.363C697.98 414.843 696.278 413.223 695.205 411.898C694.656 409.267 694.254 406.702 693.965 404.029Z"/>
	<path fill="#6ABFD5" d="M134.617 756.324C134.922 756.344 135.239 756.299 135.533 756.384C136.787 756.747 136.371 757.69 136.402 758.755C136.679 768.175 136.981 777.234 139.421 786.427C146.075 811.502 158.886 833.747 170.915 856.487C162.932 854.639 155.07 850.792 147.101 848.473C132.706 843.572 118.433 839.783 103.418 837.346C102.681 822.47 103.845 807.317 108.178 793.019C112.958 777.247 119.756 764.322 134.617 756.324Z"/>
	<path fill="#6ABFD5" d="M138.09 756.028C152.699 756.606 167.401 766.615 179.582 773.979C171.296 782.443 165.893 792.171 160.769 802.74C158.087 808.487 156.596 814.885 153.433 820.371C144.305 801.367 135.171 777.362 138.09 756.028Z"/>
	<path fill="#FEFEFE" d="M568.386 106.71C585.409 104.978 604.19 108.097 620.643 112.512C631.111 115.322 641.563 118.765 651.374 123.4C680.901 137.351 710.235 162.576 726.636 190.961C722.325 185.653 718.412 180.04 714.083 174.748C685.397 139.676 637.521 115.741 592.587 111.322C554.033 107.196 515.452 118.861 485.642 143.656C479.894 149.167 473.879 154.699 468.88 160.908C462.015 169.435 456.475 179.096 451.779 188.962C430.671 233.306 433.267 278.693 428.621 326.293C428.591 326.046 428.557 325.799 428.531 325.551C427.722 318.057 429.753 302.527 430.093 293.927C432.042 244.651 436.019 195.651 469.064 155.963C494.918 124.91 528.724 110.284 568.386 106.71Z"/>
	<path fill="#FEFEFE" d="M896.59 315.574C896.898 315.549 897.206 315.52 897.515 315.499C900.395 315.297 903.059 315.718 905.223 317.806C906.763 319.291 907.376 321.317 907.381 323.418C907.393 328.888 904.106 334.544 900.241 338.222C895.068 343.145 889.402 344.456 882.509 344.376L875.851 359.686C890.793 351.002 894.815 357.187 909.213 360.638C908.921 360.902 908.631 361.167 908.328 361.419C900.996 367.506 893.144 369.305 883.797 368.366C878.324 367.42 872.866 365.077 868.199 362.09C862.966 358.742 857.568 353.935 856.33 347.567C855.757 344.619 856.218 341.424 858.061 338.992C859.267 337.401 860.91 336.265 862.917 336.007C864.913 335.75 866.788 336.532 868.277 337.834C872.321 341.368 874.641 348.716 875.151 353.957L875.223 354.728C876.803 351.079 878.58 347.695 880.526 344.227L879.309 343.864L879.04 343.274C879.608 339.468 880.202 335.864 881.657 332.272C884.652 324.881 889.119 318.774 896.59 315.574Z"/>
	<path fill="#FEFEFE" d="M509.21 189.862C512.34 195.083 510.109 204.495 514.868 210.623C518.98 215.918 528.568 215.746 534.697 216.465C529.259 217.162 520.681 217.27 516.316 220.683C511.578 224.387 511.339 232.366 510.506 237.894L509.23 243.177C508.948 237.21 508.833 229.569 505.507 224.41C502.025 219.01 495.909 217.881 490.116 216.519C494.281 215.551 498.864 214.704 502.332 212.058C508.474 207.372 508.371 196.911 509.21 189.862Z"/>
	<path fill="#FEFEFE" d="M191.042 539.29C192.971 543.27 191.942 548.485 193.947 552.844C197.282 560.095 205.729 559.341 212.144 561.871C212.296 561.931 212.446 561.996 212.598 562.058C208.131 562.791 201.834 563.145 197.913 565.353C193.078 568.075 193.146 579.677 191.508 584.797C191.466 584.929 191.421 585.059 191.377 585.191C189.898 579.667 190.319 572.505 186.719 567.847C182.713 562.664 174.065 562.269 168.013 561.428C172.994 560.533 179.925 560.092 184.127 557.13C189.257 553.514 189.977 545.024 191.042 539.29Z"/>
	<path fill="#FEFEFE" d="M414.239 557.372C415.067 558.156 416.858 572.694 417.916 575.7C423.634 581.06 431.671 580.476 438.909 582.301C433.412 582.609 425.777 582.49 421.257 585.97C416.068 589.963 416.449 600.147 415.761 606.109C415.804 607.334 415.969 606.819 415.429 607.697C412.787 601.443 414.447 592.693 410.38 587.051C407.442 582.974 399.449 582.456 394.844 581.535C401.105 580.8 406.539 580.482 411.808 576.698C412.974 570.369 413.252 563.763 414.239 557.372Z"/>
	<path fill="#FEFEFE" d="M461.208 427.825C462.917 431.354 462.987 436.8 464.572 440.889C467.521 442.932 470.811 443.545 474.244 444.345C470.937 445.41 468.263 446.61 465.397 448.558C463.266 452.24 463.767 458.98 461.376 461.756C460.716 457.855 461.242 453.727 458.938 450.241C456.627 446.744 450.988 445.906 447.171 444.995C450.226 444.339 453.938 443.903 456.593 442.184C460.913 439.385 460.378 432.41 461.208 427.825Z"/>
	<path fill="#FEFEFE" d="M508.026 513.323C508.834 515.525 508.87 518.176 509.119 520.506C511.996 521.727 515.065 522.414 518.081 523.209C515.101 524.035 512.669 524.768 509.941 526.277C509.294 529.061 509.055 531.681 508.896 534.524L508.331 534.323C507.732 531.988 507.401 528.474 506.235 526.41C504.86 523.973 500.499 523.551 498.022 523.032C499.891 522.677 502.917 522.451 504.526 521.486C507.23 519.863 507.441 516.125 508.026 513.323Z"/>
	<path fill="#FEFEFE" d="M609.635 236.827C611.611 239.22 609.98 242.797 611.411 245.309C612.136 246.58 615.213 245.935 616.054 247.31C614.653 247.631 613.255 247.963 611.86 248.306C610.592 249.815 610.737 252.676 610.109 254.686C609.572 252.691 609.21 250.414 607.914 248.767C606.251 247.698 604.345 247.808 602.429 247.708L608.7 245.539C608.927 242.613 609.21 239.731 609.635 236.827Z"/>
	<path fill="#CBE5EA" d="M194.021 357.205C208.566 356.402 222.84 361.372 233.74 371.035C241.11 377.611 247.09 386.885 247.464 396.996C247.832 406.935 242.192 417.011 235.55 424.063C225.385 434.858 210.731 440.213 196.102 440.567C181.625 440.73 166.477 437.001 155.231 427.478C147.922 421.29 143.187 412.893 142.51 403.253C141.797 393.112 146.036 383.697 152.653 376.195C163.305 364.119 178.209 358.213 194.021 357.205Z"/>
	<path fill="#6ABFD5" d="M307.103 229.286C310.856 228.997 314.642 228.887 318.402 228.693C318.686 238.097 317.919 247.826 317.706 257.257C326.996 256.951 336.191 255.39 345.504 255.46C345.609 260.068 346.971 276.76 344.267 279.495C341.89 281.9 322.6 281.606 317.944 281.794C317.957 290.622 318.482 299.885 317.44 308.655C312.611 309.62 307.522 309.488 302.615 309.555C299.059 309.897 295.524 309.964 291.954 310.019C291.819 301.151 291.932 292.263 291.924 283.393C282.674 283.689 273.259 284.12 264.063 285.149C263.761 276.854 263.858 268.419 264.005 260.12C273.114 258.486 283.225 258.439 292.487 257.913C292.387 248.628 292.43 239.342 292.614 230.059C297.434 229.714 302.276 229.536 307.103 229.286Z"/>
</svg>
